PathFileType	4	(X/Y/Z)	C:/Users/beibeiliu/ov580/test_trc/capture2\sequence.33_training_dense_right.trc
DataRate	CameraRate	NumFrames	NumMarkers	Units	OrigDataRate	OrigDataStartFrame	OrigNumFrames
120	120	24	19	mm	120	43	336
Frame#	Time	ThumbCMC			ThumbMCP			ThumbIP			ThumbTip			IndexMCP			IndexPIP			IndexTip			MiddleMCP			MiddlePIP			MiddleTip			RingMCP			RingPIP			RingTip			PinkyMCP			PinkyPIP			PinkyTip			BackHand1			BackHand2			BackHand3	
		X0	Y0	Z0	X1	Y1	Z1	X2	Y2	Z2	X3	Y3	Z3	X4	Y4	Z4	X5	Y5	Z5	X6	Y6	Z6	X7	Y7	Z7	X8	Y8	Z8	X9	Y9	Z9	X10	Y10	Z10	X11	Y11	Z11	X12	Y12	Z12	X13	Y13	Z13	X14	Y14	Z14	X15	Y15	Z15	X16	Y16	Z16	X17	Y17	Z17	X18	Y18	Z18	
42	0.35	127.788	29.2783	67.0052	109.406	32.4645	41.5186	105.65	37.7736	11.3789	106.786	35.1653	-14.2851	158.177	32.7089	-0.0912102	142.182	29.5766	-20.8951	114.301	19.3638	-27.4208	163.204	12.135	-7.32471	141.824	7.59359	-25.2867	105.71	0.469114	-18.023	162.609	-5.18687	-2.59952	136.917	-8.80189	-20.0977	109.101	-7.26774	-6.71704	163.188	-28.8296	6.12123	139.338	-27.7159	-12.1834	109.979	-18.5715	1.40572	174.89	-11.5415	55.9911	167.226	-16.683	80.0448	164.118	18.5802	67.1865	
43	0.358333	126.115	32.6058	67.3155	110.506	32.6522	40.3878	105.544	37.7099	13.6993	106.479	34.9805	-9.73898	159.541	32.3163	3.88237	138.114	32.6019	-24.0056	113.331	22.1647	-28.4771	162.837	13.7544	-2.52961	138.338	12.6407	-25.4064	106.103	4.7689	-18.2112	163.598	-5.74905	-2.34364	134.117	-6.94281	-19.8263	107.616	-10.1566	-4.59246	162.463	-27.6606	3.50812	137.895	-23.3187	-11.8281	110.665	-16.8551	2.62635	173.776	-10.5056	55.4957	167.607	-14.9647	80.2858	163.65	15.102	70.06	
44	0.366667	128.175	29.6964	63.8432	110.552	33.3711	40.5703	105.356	37.911	13.6554	105.684	35.7308	-11.542	158.878	35.2458	-1.26818	141.335	34.1495	-22.6637	112.602	19.373	-28.7475	161.354	15.7591	-5.96993	137.073	9.94063	-26.0448	103.769	5.4279	-16.6434	160.513	-5.70506	-6.62028	132.45	-5.65571	-20.526	106.804	-7.40416	-3.44438	159.766	-22.8507	4.77047	134.369	-22.9089	-11.5349	112.046	-11.5327	3.23234	175.905	-10.4096	50.9128	164.263	-16.2296	82.2471	163.054	17.8674	70.0661	
45	0.375	127.761	30.7401	64.1008	110.225	36.0655	36.8275	104.505	42.2537	10.4501	105.144	38.3603	-15.4054	160.774	33.0299	2.5975	141.29	35.4599	-22.7528	110.858	24.0403	-29.267	162.297	17.1745	-5.71906	139.527	14.9718	-26.2201	103.991	6.48861	-16.8003	161.467	-3.717	-2.62096	132.727	-4.54962	-20.5454	105.783	-3.72022	-3.45267	159.673	-25.3882	1.09613	137.519	-20.8193	-12.3665	107.987	-14.2722	3.81682	172.368	-8.70593	52.3655	165.518	-18.3848	82.3726	163.789	21.0368	67.0772	
46	0.383333	126.376	34.9084	62.9765	110.736	36.8846	36.6353	104.252	43.0503	6.67257	105.525	37.2698	-12.6508	159.02	37.3932	0.518386	141.866	33.1853	-24.534	110.105	22.6313	-30.3153	162.139	16.1267	-6.6005	137.053	15.254	-27.8132	104.201	7.90998	-17.7938	161.549	-2.82705	-4.41698	132.745	-3.05916	-21.8815	106.088	-1.63208	-3.13595	159.418	-25.9736	-1.459	130.979	-21.317	-13.7421	110.749	-9.43594	1.79097	172.84	-12.9316	46.7673	166.288	-16.8841	76.5077	164.505	17.3143	65.7044	
47	0.391667	128.26	31.927	63.1687	109.347	40.192	33.7594	103.672	44.8485	7.42367	108.07	35.403	-16.7562	159.332	38.1694	-1.09619	141.52	31.8741	-28.2882	112.858	27.646	-33.7242	161.925	13.935	-11.4665	134.247	14.1776	-30.9515	101.218	10.5269	-19.476	161.461	-4.65712	-7.20724	130.992	-6.2576	-24.7524	106.561	-2.10651	-7.22384	158.426	-24.5105	-2.09438	134.992	-17.9558	-16.5341	109.839	-8.41987	-3.03485	173.673	-13.087	48.2185	164.463	-14.3452	78.2034	163.514	18.1955	66.5628	
48	0.4	127.666	34.986	58.9659	108.952	41.1448	32.1158	104.815	43.922	2.22803	105.334	37.625	-18.1223	159.508	34.7121	-10.5175	143.097	36.3657	-30.3949	114.991	23.9394	-36.8288	161.954	12.6981	-14.9863	136.992	14.3839	-33.7797	102.491	9.94233	-23.9286	161.52	-3.43106	-11.8905	136.06	-6.02035	-28.7756	104.031	-3.58224	-8.36572	158.326	-26.3737	-2.86443	133.011	-24.4813	-20.3553	110.061	-9.73042	-7.06558	171.77	-13.5158	46.5704	165.868	-16.1514	72.6347	164.528	18.5806	62.027	
49	0.408333	129.317	33.3107	53.2718	111.593	39.8426	23.5194	103.839	43.8796	1.10947	106.711	35.6665	-24.2835	159.693	33.2343	-10.5011	138.729	31.5062	-36.0695	110.367	22.2051	-39.795	163.283	15.6035	-14.4475	135.858	8.88803	-38.6124	105.17	7.3381	-29.5306	161.614	-8.48089	-16.5486	137.069	-5.29803	-32.8284	104.609	-3.5673	-15.7879	159.367	-24.6627	-4.76257	134.155	-25.5471	-22.9644	110.145	-11.8785	-12.9848	173.149	-12.4904	41.034	163.776	-13.0021	68.7749	165.643	18.4916	58.6789	
50	0.416667	128.095	36.9916	47.2808	108.871	40.972	21.1102	104.512	42.5585	-3.33516	106.908	35.7473	-30.5587	160.994	35.0811	-16.7597	141.698	32.6042	-40.5999	114.215	22.5637	-45.372	163.648	14.3197	-23.5338	141.364	12.122	-42.0526	106.865	2.60199	-35.3567	163.483	-10.0625	-19.6253	139.266	-9.1712	-37.3013	105.797	-6.96405	-23.0727	159.406	-26.1205	-9.75742	137.583	-22.0371	-28.2927	109.257	-16.2575	-16.0191	173.773	-9.19101	35.3326	166.101	-12.1687	64.9518	164.387	17.2717	54.8117	
51	0.425	126.893	36.7618	45.9488	112.514	37.7234	14.3575	106.517	38.4046	-8.68021	108.016	32.996	-34.7097	163.508	30.2675	-18.2844	146.501	27.7029	-42.9021	115.675	22.4836	-50.8218	166.508	10.6467	-22.8786	144.905	8.99624	-47	107.044	6.69082	-42.2603	164.892	-13.2692	-21.7773	138.156	-8.39093	-42.5224	107.105	-8.23095	-30.3667	160.249	-27.8174	-14.5175	138.822	-29.4876	-31.1537	108.775	-14.1015	-21.4408	174.124	-11.243	32.0993	165.376	-16.791	62.6156	166.152	19.119	50.3128	
52	0.433333	130.301	36.3925	39.2721	111.535	37.6764	10.1839	108.369	36.0142	-15.6608	106.723	32.9261	-38.6421	164.949	26.7323	-26.6511	147.901	27.6036	-51.0781	117.613	15.9246	-57.1467	169.307	6.33626	-30.6135	148.38	7.86313	-52.3936	112.232	1.34796	-50.2792	165.349	-12.5097	-28.087	141.8	-12.8097	-46.5706	108.876	-8.96201	-37.3916	161.04	-30.2392	-16.1819	139.779	-28.4586	-36.3344	111.998	-15.8907	-29.1543	174.46	-15.8333	29.9056	163.257	-13.6675	61.21	166.29	15.1428	44.7634	
53	0.441667	131.237	35.2269	33.9276	111.578	37.7548	5.50382	106.272	36.7763	-18.6553	106.998	30.0028	-47.2708	168.548	25.0728	-28.1565	156.114	21.6264	-54.1906	128.269	13.5923	-64.8927	172.262	5.99393	-32.9954	150.893	1.01136	-60.9005	118.479	-2.35659	-61.2891	166.613	-18.043	-33.0985	144.389	-18.2643	-51.8857	111.604	-7.29923	-45.2116	160.569	-35.6306	-19.1403	139.11	-35.8052	-39.0241	113.58	-18.2281	-36.7685	174.383	-16.5898	28.1902	165.096	-14.4248	55.7257	168.9	17.8805	39.7126	
54	0.45	132.242	31.7617	28.163	113.411	32.7087	2.03639	107.227	34.4296	-26.7846	104.689	29.2951	-47.5881	171.331	21.3794	-37.0309	157.96	20.1458	-64.0511	134.938	12.3104	-75.4991	174.907	1.83142	-39.6127	156.274	-2.12186	-67.3222	126.765	-2.30834	-73.4777	166.328	-17.8695	-37.4126	144.832	-23.0687	-56.4774	114.443	-13.9986	-53.3086	159.214	-36.91	-26.8733	136.298	-34.4814	-43.3662	107.538	-19.0703	-37.879	174.097	-14.9099	19.9542	164.975	-16.0611	51.2943	170.442	17.1045	31.657	
55	0.458333	132.484	31.157	21.0097	114.19	31.1562	-7.24473	104.62	33.3187	-29.908	103.552	25.0393	-55.7295	172.518	21.6848	-40.4624	164.022	15.8976	-67.6754	143.872	8.95818	-84.2298	176.474	-1.46542	-42.6156	163.548	-5.6438	-70.9749	130.843	-9.79321	-84.9025	166.511	-23.903	-37.9079	143.054	-20.6728	-61.7025	111.296	-19.2854	-57.9507	158.059	-38.4894	-27.3488	132.817	-38.9527	-45.9077	109.342	-20.9616	-44.4621	175.125	-17.131	16.0241	163.651	-14.7532	47.1656	168.629	19.0419	26.422	
56	0.466667	132.121	31.9405	15.1563	110.88	31.057	-11.9017	104.208	31.1128	-36.5816	100.181	25.2944	-59.7616	173.291	17.3043	-44.9497	168.558	16.3895	-70.4749	149.639	6.97633	-93.8351	177.195	-4.03194	-45.4639	168.415	-11.5318	-72.9802	140.816	-14.609	-93.2803	165.177	-22.7857	-41.5181	142.046	-29.7129	-64.4068	111.532	-23.9113	-61.1178	156.302	-38.8796	-31.4062	131.24	-42.2242	-47.5893	104.937	-25.7955	-42.3504	172.394	-18.5262	14.4167	164.647	-13.566	42.6748	167.931	15.3057	21.4741	
57	0.475	130.359	32.6368	11.5839	109.78	31.8655	-17.9123	99.9075	32.5631	-43.8329	97.8571	24.334	-60.769	172.674	18.5037	-47.3062	170.183	12.1185	-76.0745	153.344	2.47135	-99.0034	176.311	-8.57677	-49.0159	168.707	-14.0772	-80.0033	145.599	-21.002	-99.03	163.176	-28.2819	-44.2956	141.54	-31.4622	-66.9643	109.752	-20.9982	-65.0343	153.057	-44.9314	-35.8137	130.765	-40.2492	-50.4082	102.198	-22.2293	-44.2131	172.021	-15.5524	10.2252	164.545	-14.3843	36.2757	167.288	14.3128	17.2886	
58	0.483333	131.545	31.4379	4.85013	108.241	31.5497	-18.3164	98.4333	33.5243	-43.1313	95.9949	22.0358	-66.3709	172.712	14.0989	-50.634	171.409	12.4058	-81.5369	158.322	2.68793	-103.136	176.493	-9.89084	-50.6124	170.042	-20.5801	-83.1113	147.723	-22.4657	-107.044	162.688	-26.381	-49.1095	137.56	-34.8213	-68.9152	109.594	-25.1928	-67.3883	152.032	-46.0536	-36.9515	126.777	-42.76	-51.6484	101.174	-25.1227	-44.6745	169.7	-20.0336	8.02356	162.65	-14.2978	37.8371	166.777	14.3505	15.1227	
59	0.491667	132.241	29.6301	1.50486	108.676	32.9629	-23.7603	102.342	26.0198	-49.5624	96.528	20.0672	-69.3856	173.958	14.9628	-55.166	173.701	7.5008	-82.5899	162.28	-4.44666	-106.938	178.064	-13.4669	-57.4513	172.928	-22.3211	-86.0381	154.298	-28.2919	-108.312	162.686	-32.6557	-52.7322	138.106	-37.6773	-72.7814	108.269	-29.6075	-68.2034	152.035	-48.1926	-38.0491	125.45	-45.859	-52.386	105.179	-25.4853	-43.8155	171.209	-20.7248	-0.177985	163.513	-14.6613	33.6008	168.113	12.2775	11.8113	
60	0.5	132.504	31.8718	-2.06895	113.365	26.846	-28.1782	103.241	27.118	-53.8668	97.3823	19.5341	-77.1526	178.126	7.88034	-60.7985	175.582	4.33073	-90.3802	165.553	-5.07775	-114.293	179.922	-13.873	-57.557	176.135	-21.637	-87.733	153.098	-34.281	-114.52	162.333	-36.6098	-58.7116	138.475	-38.9817	-74.7717	107.542	-28.7973	-68.4178	150.561	-50.8718	-41.1197	125.116	-40.4818	-55.7183	104.203	-26.0875	-41.3468	172.771	-24.5518	-1.39606	164.724	-16.94	28.6262	170.935	10.0855	4.15491	
61	0.508333	135.528	28.9927	-9.24651	111.896	29.7262	-31.8883	103.534	26.8909	-59.4473	101.889	14.8377	-78.8926	178.642	7.99897	-59.9488	178.685	-2.34027	-90.8522	169.502	-7.11793	-113.314	180.165	-19.5113	-58.9927	177.405	-24.3313	-92.3819	157.049	-31.2154	-116.014	163.813	-34.5509	-59.7132	141.854	-38.6756	-78.0328	110.345	-28.4812	-70.0307	151.043	-48.3929	-47.5292	125.608	-44.8365	-56.3725	108.598	-18.3272	-39.1394	171.979	-26.3535	-5.32749	164.584	-18.3542	24.653	170.85	11.8838	1.54348	
62	0.516667	136.259	29.728	-10.4447	114.731	26.0657	-35.4117	107.185	23.4236	-65.0034	103.872	15.06	-84.281	179.851	4.08102	-61.1862	180.608	-3.19742	-88.4831	170.49	-8.87764	-116.428	184.375	-20.3654	-65.7822	178.597	-24.7866	-93.1955	155.174	-34.2013	-118.133	164.816	-38.0277	-59.1761	138.943	-35.5018	-80.5789	109.264	-23.8812	-66.0177	151.63	-52.1601	-46.5662	124.867	-40.6889	-57.4297	114.817	-16.9706	-38.1862	172.487	-25.054	-4.38325	164.611	-20.0105	25.6461	170.566	8.3857	-1.14232	
63	0.525	136.435	28.6654	-13.2853	116.397	24.1624	-38.7	108.638	23.4067	-65.2702	105.499	12.6673	-89.1543	181.375	3.10165	-62.8328	182.37	1.55683	-94.3896	167.953	-12.3894	-116.582	183.441	-19.9184	-64.5439	179.295	-25.6379	-92.1689	152.767	-34.2957	-119.053	165.427	-38.1211	-59.8831	139.775	-38.7092	-78.922	113.492	-25.3637	-65.4764	151.785	-51.2958	-47.9412	128.18	-40.6262	-58.4405	115.157	-18.2592	-37.2262	175.747	-26.6481	-8.04379	163.911	-18.936	24.1306	170.823	10.1927	-2.40297	
64	0.533333	136.145	28.2403	-7.78094	117.245	25.946	-41.3265	108.933	24.0731	-63.7502	109.329	10.8913	-88.2956	182.84	8.54327	-62.4822	181.295	1.58777	-96.2217	165.609	-10.187	-116.666	184.488	-15.1186	-66.3409	177.123	-26.2499	-94.1567	152.071	-27.4209	-116.618	166.014	-35.9813	-61.8769	135.831	-36.2427	-79.8751	115.254	-21.5052	-65.6018	152.56	-48.2067	-50.3682	125.708	-37.8939	-58.1686	115.776	-17.9304	-35.3344	175.143	-27.9594	-9.01456	165.183	-20.2844	22.7751	170.816	8.22699	0.167208	
65	0.541667	136.997	28.3986	-9.80536	119.266	22.4551	-38.1601	112.437	22.7411	-64.0524	111.354	10.4194	-85.5868	183.859	7.37094	-61.6575	181.393	-2.65924	-93.2095	166.142	-8.9814	-113.551	186.131	-19.8977	-68.0005	176.722	-24.6926	-94.0917	150.014	-23.9615	-113.265	166.569	-33.0541	-65.1567	140.408	-31.5979	-80.2048	116.695	-16.1952	-62.2235	152.89	-47.0462	-52.889	125.058	-36.2674	-56.8225	120.321	-16.9166	-36.5778	174.985	-27.3255	-6.34159	163.553	-19.0719	22.9113	174.603	5.81054	-0.622559	
